# xmcd
#
# Track frame offsets:
#	150
#	19950
#	41362
#	52912
#	64162
#	79612
#	102262
#	115312
#	135412
#	154612
#
# Disc length: 2291 seconds
#
# Revision: 1
# Processed by: cddbd v1.5.2PL0 Copyright (c) Steve Scherf et al.
# Submitted via: audiograbber 1.83.01
#
DISCID=7508f10a
DTITLE=Johkurt - Uneigschdeggd
DYEAR=2010
DGENRE=Folk
TTITLE0=Starmodell
TTITLE1=Illusione
TTITLE2=Bachgestelztes
TTITLE3=Is mir schlecht Blues
TTITLE4=Europuff
TTITLE5=Mouschd Blues
TTITLE6=Des Freilein Vera
TTITLE7=Druffgängerblues
TTITLE8=In 50 Jahr'n
TTITLE9=Musiker vom Land
EXTD=
EXTT0=
EXTT1=
EXTT2=
EXTT3=
EXTT4=
EXTT5=
EXTT6=
EXTT7=
EXTT8=
EXTT9=
PLAYORDER=
